HIERARCHY
ROOT ui
{
	 OFFSET 0 0 0
	 CHANNELS 3 XPosition YPosition Z Position
	 EndSite
	 {
	 OFFSET 0 -1 0
	 }
}
ROOT li
{
	 OFFSET 0 0 0
	 CHANNELS 3 XPosition YPosition Z Position
	 EndSite
	 {
	 OFFSET 0 -1 0
	 }
}
ROOT ul
{
	 OFFSET 0 0 0
	 CHANNELS 3 XPosition YPosition Z Position
	 EndSite
	 {
	 OFFSET 0 -1 0
	 }
}
ROOT ll
{
	 OFFSET 0 0 0
	 CHANNELS 3 XPosition YPosition Z Position
	 EndSite
	 {
	 OFFSET 0 -1 0
	 }
}
ROOT tt
{
	 OFFSET 0 0 0
	 CHANNELS 3 XPosition YPosition Z Position
	 EndSite
	 {
	 OFFSET 0 -1 0
	 }
}
ROOT tb
{
	 OFFSET 0 0 0
	 CHANNELS 3 XPosition YPosition Z Position
	 EndSite
	 {
	 OFFSET 0 -1 0
	 }
}
ROOT td
{
	 OFFSET 0 0 0
	 CHANNELS 3 XPosition YPosition Z Position
	 EndSite
	 {
	 OFFSET 0 -1 0
	 }
}
ROOT v
{
	 OFFSET 0 0 0
	 CHANNELS 3 XPosition YPosition Z Position
	 EndSite
	 {
	 OFFSET 0 -1 0
	 }
}
ROOT bn
{
	 OFFSET 0 0 0
	 CHANNELS 3 XPosition YPosition Z Position
	 EndSite
	 {
	 OFFSET 0 -1 0
	 }
}
MOTION
Frames: 16
Frame Time: 0.002
-0.0026751039028167726	-0.0024289369583129885	0		0.5890122680664063	-2.487096435546875	0		-1.2949041748046874	0.08571299743652344	0		-0.566412353515625	-2.846259033203125	0		2.165357421875	-0.8608313598632813	0		3.59640087890625	-0.011235838890075683	0		4.93915966796875	0.27616415405273437	0		5.92169482421875	0.33077685546875	0		-0.4728431396484375	5.8372451171875	0		
2.9844000935554506E-4	6.535490155220032E-4	0		0.618793212890625	-2.485312744140625	0		-1.290914794921875	0.0898805694580078	0		-0.5236109619140625	-2.83951416015625	0		2.168419677734375	-0.8419083251953124	0		3.630363037109375	-0.009710227012634277	0		4.93724853515625	0.2889317626953125	0		5.925287109375	0.34743212890625	0		-0.4573858642578125	5.846248046875	0		
0.004290225982666015	0.004734714031219483	0		0.5846983642578125	-2.470915283203125	0		-1.290954345703125	0.09009554290771485	0		-0.5776261596679687	-2.813842041015625	0		2.165273193359375	-0.8459202880859376	0		3.6012314453125	-0.018582027435302736	0		4.92024365234375	0.2908483581542969	0		5.9216181640625	0.3296602478027344	0		-0.45897116088867185	5.84942041015625	0		
-0.0077628250122070315	0.0029792959690093995	0		0.63036376953125	-2.4832705078125	0		-1.2239854736328124	0.08967610931396484	0		-0.5429086303710937	-2.818006103515625	0		2.147244140625	-0.8387778930664063	0		3.602079833984375	-0.030727420806884766	0		4.91630712890625	0.2986527709960938	0		5.92159033203125	0.329124267578125	0		-0.43862319946289063	5.8443916015625	0		
-0.002831125974655151	-0.0019283939599990844	0		0.5792140502929688	-2.4776826171875	0		-1.300985595703125	0.09165094757080078	0		-0.5530264892578125	-2.80673046875	0		2.18214208984375	-0.8411331787109375	0		3.603931884765625	-0.04386832809448242	0		4.91124169921875	0.2914837646484375	0		5.90589013671875	0.33071575927734376	0		-0.45915869140625	5.8507666015625	0		
0.011147404670715332	-0.003914062976837158	0		0.6060361938476563	-2.47783642578125	0		-1.295029296875	0.08683538818359375	0		-0.5940487670898438	-2.788141357421875	0		2.134181396484375	-0.8306691284179688	0		3.603927490234375	-0.043972824096679686	0		4.90126171875	0.29138430786132813	0		5.9200400390625	0.3022337951660156	0		-0.44265859985351563	5.85979296875	0		
-0.0047324028015136715	0.006403500080108642	0		0.5839593505859375	-2.470500244140625	0		-1.290962890625	0.09104537963867188	0		-0.5871382446289063	-2.780008544921875	0		2.131254638671875	-0.8196234130859374	0		3.5919169921875	-0.04693776702880859	0		4.89737158203125	0.29825222778320315	0		5.91807373046875	0.34165386962890626	0		-0.44223947143554687	5.85998486328125	0		
0.026264076232910157	0.0012703020572662354	0		0.6378160400390624	-2.473898681640625	0		-1.2958603515625	0.09634998321533203	0		-0.5852493896484375	-2.777818115234375	0		2.10732958984375	-0.8113499755859375	0		3.601822265625	-0.06109291458129883	0		4.8874384765625	0.29821066284179687	0		5.9252509765625	0.34458346557617187	0		-0.40775991821289065	5.86584912109375	0		
-0.007640355110168457	0.003790769100189209	0		0.5748660278320312	-2.461126220703125	0		-1.2908306884765626	0.09156103515625	0		-0.5602714233398437	-2.7708486328125	0		2.116384765625	-0.8083804321289062	0		3.601892578125	-0.06112217330932617	0		4.86955078125	0.3002843017578125	0		5.922357421875	0.3218717041015625	0		-0.4224476013183594	5.85520703125	0		
0.022408197402954102	-0.001314592957496643	0		0.6257813110351562	-2.466472900390625	0		-1.219689453125	0.09511398315429688	0		-0.5912486572265625	-2.763314697265625	0		2.0925224609375	-0.800060302734375	0		3.5639609375	-0.06374116134643555	0		4.8655966796875	0.2932574157714844	0		5.92020068359375	0.30094775390625	0		-0.4220335693359375	5.855423828125	0		
-0.002467952013015747	-8.614940047264099E-4	0		0.5837484130859375	-2.469877685546875	0		-1.290598876953125	0.09208871459960938	0		-0.5892376098632812	-2.76110400390625	0		2.0897177734375	-0.7889274291992188	0		3.56408056640625	-0.06370792770385743	0		4.85166357421875	0.2863697509765625	0		5.9082333984375	0.3184033813476562	0		-0.4405909729003906	5.85983740234375	0		
7.025189995765686E-4	0.0023185551166534425	0		0.5918776245117188	-2.4607724609375	0		-1.2773443603515624	0.10322042846679688	0		-0.6130581665039062	-2.7456279296875	0		2.098936279296875	-0.7778944091796876	0		3.581177001953125	-0.06781549072265625	0		4.845876953125	0.2924407958984375	0		5.93255224609375	0.31083193969726564	0		-0.4430782165527344	5.873095703125	0		
8.54557991027832E-4	0.00253485894203186	0		0.6080052490234376	-2.454738525390625	0		-1.2771888427734375	0.10348049926757813	0		-0.5420443725585937	-2.750109375	0		2.07823486328125	-0.7605382080078125	0		3.560317626953125	-0.06850910949707031	0		4.83704931640625	0.293582275390625	0		5.9241220703125	0.31625262451171876	0		-0.37659689331054685	5.885658203125	0		
-0.002018589973449707	-2.1406599879264832E-4	0		0.6040555419921875	-2.45849365234375	0		-1.2770289306640625	0.10373551940917969	0		-0.5878374633789063	-2.73740771484375	0		2.069402099609375	-0.7572826538085937	0		3.535352294921875	-0.08013047790527343	0		4.82009326171875	0.28184515380859376	0		5.9206015625	0.3008740539550781	0		-0.4054923706054688	5.8651845703125	0		
-0.00985205078125	0.0010897730588912964	0		0.6202230834960938	-2.4524462890625	0		-1.2768709716796875	0.10398326873779297	0		-0.5636759033203125	-2.73141796875	0		2.072583740234375	-0.7531318969726563	0		3.537384521484375	-0.09199769592285156	0		4.81025537109375	0.28207394409179687	0		5.91355859375	0.29604144287109374	0		-0.4052203369140625	5.8654150390625	0		
-0.008784110069274903	-0.006697717189788818	0		0.582353271484375	-2.45084521484375	0		-1.2726898193359375	0.10718086242675781	0		-0.5805401611328125	-2.729015625	0		2.06101953125	-0.7238155517578125	0		3.534482177734375	-0.09678998565673828	0		4.8053271484375	0.2742859191894531	0		5.922201171875	0.29089309692382814	0		-0.4380552062988281	5.859978515625	0		
